<svg width="464" height="561" viewBox="0 0 464 561" fill="none" xmlns="http://www.w3.org/2000/svg">
<path d="M227.855 0.20813C228.785 0.0911296 228.383 0.123132 229.464 0.0791318C242.049 -0.439868 255.952 2.87514 268.242 5.37714C317.21 15.3471 405.296 41.8241 442.129 76.6761C457.481 91.2021 462.485 108.628 462.998 129.288C463.739 159.097 462.974 189.055 462.988 218.881L463.016 275.193C463.03 307.909 463.978 341.773 452.219 372.878C440.596 403.624 419.786 428.388 397.371 451.888C383.422 466.512 368.077 480.067 352.406 492.809C328.79 512.013 263.439 560.501 232.634 560.956C201.094 561.421 123.343 504.083 100.705 482.162C113.772 464.398 127.759 447.187 141.306 429.78L213.698 337.02C226.232 321.059 238.863 305.176 251.593 289.371C258.756 280.461 272.432 261.833 281.145 255.699C285.539 252.606 295.202 261.52 298.701 264.326C311.319 274.444 323.404 285.699 334.664 297.308C347.427 310.467 359.175 324.662 371.138 338.547C376.679 344.978 382.085 351.915 388.213 357.781C389.579 359.089 390.842 360.354 392.82 360.572C393.989 360.7 395.296 360.323 396.063 359.408C400.362 354.271 396.899 332.778 395.854 325.51C390.202 288.545 375.002 253.082 354.472 222.005C347.601 211.605 339.074 201.86 332.811 191.154L332.444 190.518C332.512 190.371 332.577 190.223 332.648 190.077C332.766 189.834 332.891 189.594 333.011 189.352C336.312 182.664 343.888 176.811 344.536 169.093C344.789 166.087 343.078 163.859 341.224 161.668C334.787 154.063 301.281 128.269 292.198 122.95C289.719 121.498 286.512 119.83 283.617 119.731C276.124 119.476 269.504 129.853 264.244 134.196C262.49 135.644 260.523 136.855 258.169 136.307C250.748 134.582 240.946 129.506 233.382 126.839C211.135 118.993 187.66 112.3 164.146 109.76C158.206 109.075 152.249 108.602 146.275 108.343C140.301 108.084 134.325 108.039 128.348 108.208C122.37 108.377 116.407 108.759 110.458 109.354C104.508 109.95 98.5867 110.758 92.6947 111.777C89.2487 112.359 83.0948 112.816 80.5318 115.24C79.7268 116.002 79.1998 116.922 79.4028 118.069C80.0058 121.466 87.4327 123.522 90.3467 124.653C98.7894 127.862 107.135 131.306 115.384 134.987C123.632 138.668 131.769 142.579 139.796 146.72C147.822 150.861 155.725 155.226 163.505 159.815C171.284 164.404 178.928 169.209 186.436 174.23C193.814 179.249 201.575 184.53 208.052 190.682C210.95 193.436 214.575 197.39 214.512 201.63C214.451 205.756 211.571 209.685 209.32 212.949C197.459 230.157 184.081 246.409 171.103 262.782L115.607 332.861L68.4827 392.51C60.4107 402.654 52.4487 413.862 43.4417 423.157L42.9307 423.678C38.1637 419.103 34.1927 413.164 30.4977 407.685C14.8657 384.502 5.67873 359.749 2.73473 331.902C0.334727 309.201 0.497739 286.068 0.533739 263.263L0.686754 192.82L0.88875 146.673C0.97075 135.023 0.572754 122.956 2.57475 111.446C2.78942 110.153 3.04673 108.869 3.34673 107.594C3.64606 106.318 3.98775 105.054 4.37175 103.801C4.75508 102.548 5.1794 101.309 5.64473 100.084C6.11073 98.8595 6.6164 97.6515 7.16173 96.4601C7.70706 95.2688 8.29142 94.0968 8.91475 92.9441C9.53808 91.7908 10.1987 90.6598 10.8967 89.5511C11.5947 88.4425 12.3287 87.3578 13.0987 86.2971C13.8681 85.2371 14.6721 84.2035 15.5107 83.1962C49.8587 41.3352 175.224 5.09413 227.855 0.20813Z" fill="#FCFCFB"/>
</svg>
